<svg width="130" height="90" viewBox="0 0 130 90" fill="none" xmlns="http://www.w3.org/2000/svg">
<rect x="0.5" y="0.5" width="129" height="89" rx="7.5" fill="white" stroke="#F3F3F3"/>
<path d="M57.7195 61.7242H49.0645L54.4779 30.2227H63.1325L57.7195 61.7242Z" fill="#15195A"/>
<path d="M89.0937 30.9935C87.3865 30.3561 84.6788 29.6523 81.3307 29.6523C72.7836 29.6523 66.7648 33.9417 66.7279 40.0742C66.6569 44.5987 71.0372 47.1118 74.3133 48.6204C77.6618 50.162 78.8001 51.1682 78.8001 52.5423C78.766 54.6526 76.0943 55.6254 73.6024 55.6254C70.1469 55.6254 68.2954 55.1239 65.4817 53.9498L64.342 53.4465L63.1309 60.5179C65.1608 61.3882 68.9007 62.1606 72.7836 62.1944C81.8651 62.1944 87.7774 57.9714 87.8475 51.4363C87.882 47.8503 85.5691 45.1025 80.5825 42.8571C77.5553 41.4158 75.7014 40.4439 75.7014 38.9691C75.7369 37.6284 77.2694 36.2552 80.6866 36.2552C83.5003 36.1879 85.5676 36.8244 87.1338 37.4614L87.9166 37.7959L89.0937 30.9935V30.9935V30.9935Z" fill="#15195A"/>
<path fill-rule="evenodd" clip-rule="evenodd" d="M104.587 30.2227H111.281L118.264 61.7238H110.25C110.25 61.7238 109.466 58.1044 109.217 56.9984H98.105C97.7836 57.8358 96.2885 61.7238 96.2885 61.7238H87.207L100.063 32.8364C100.954 30.7919 102.522 30.2227 104.587 30.2227ZM104.053 41.7505C104.053 41.7505 101.311 48.7546 100.598 50.5644H107.792C107.436 48.9894 105.797 41.4489 105.797 41.4489L105.192 38.7346C104.938 39.4335 104.569 40.3944 104.321 41.0426C104.152 41.482 104.039 41.7776 104.053 41.7505Z" fill="#15195A"/>
<path d="M25.4873 30.2227C27.3748 30.289 28.9069 30.8592 29.4053 32.8711L32.4287 47.335C32.4299 47.3389 32.4314 47.3428 32.4326 47.3467L33.3584 51.7041L41.835 30.2227H50.9863L37.3828 61.6904H28.2295L20.5146 34.3184C17.8532 32.8541 14.8158 31.6766 11.4199 30.8594L11.5625 30.2227H25.4873Z" fill="#15195A"/>
</svg>
