<svg width="490" height="108" viewBox="0 0 490 108" fill="none" xmlns="http://www.w3.org/2000/svg">
<g filter="url(#filter0_dd_5399_64943)">
<path d="M24 30C24 20.0589 32.0589 12 42 12H431.13C444.385 12 455.13 22.7452 455.13 36V48C455.13 61.2548 444.385 72 431.13 72H42C32.0589 72 24 63.9411 24 54V30Z" fill="#C5F3FF" shape-rendering="crispEdges"/>
<path d="M370.098 60V57.6826H365.258V56.7256L370.022 49.9512H371.198V56.6572H372.695V57.6826H371.198V60H370.098ZM370.098 56.6572V53.3896C370.098 53.057 370.098 52.7585 370.098 52.4941C370.102 52.2298 370.109 51.9928 370.118 51.7832C370.127 51.5736 370.139 51.3844 370.152 51.2158H370.098C369.997 51.3981 369.874 51.6032 369.729 51.8311C369.583 52.0589 369.453 52.2526 369.339 52.4121L366.386 56.6572H370.098ZM374.008 59.2891C374.008 58.9701 374.085 58.7445 374.24 58.6123C374.395 58.4756 374.584 58.4072 374.808 58.4072C375.04 58.4072 375.236 58.4756 375.396 58.6123C375.555 58.7445 375.635 58.9701 375.635 59.2891C375.635 59.6035 375.555 59.8337 375.396 59.9795C375.236 60.1208 375.04 60.1914 374.808 60.1914C374.584 60.1914 374.395 60.1208 374.24 59.9795C374.085 59.8337 374.008 59.6035 374.008 59.2891ZM374.008 53.2256C374.008 52.8975 374.085 52.6673 374.24 52.5352C374.395 52.3984 374.584 52.3301 374.808 52.3301C375.04 52.3301 375.236 52.3984 375.396 52.5352C375.555 52.6673 375.635 52.8975 375.635 53.2256C375.635 53.5355 375.555 53.7611 375.396 53.9023C375.236 54.0436 375.04 54.1143 374.808 54.1143C374.584 54.1143 374.395 54.0436 374.24 53.9023C374.085 53.7611 374.008 53.5355 374.008 53.2256ZM384.036 54.9893C384.036 55.8005 383.975 56.5251 383.852 57.1631C383.729 57.8011 383.535 58.3411 383.271 58.7832C383.006 59.2253 382.664 59.5625 382.245 59.7949C381.826 60.0228 381.322 60.1367 380.734 60.1367C380.174 60.1367 379.686 60.0228 379.271 59.7949C378.861 59.5625 378.52 59.2275 378.246 58.79C377.977 58.348 377.777 57.8079 377.645 57.1699C377.512 56.5319 377.446 55.805 377.446 54.9893C377.446 53.9183 377.553 53 377.768 52.2344C377.986 51.4688 378.335 50.8809 378.813 50.4707C379.297 50.056 379.937 49.8486 380.734 49.8486C381.491 49.8486 382.111 50.0537 382.594 50.4639C383.081 50.8695 383.444 51.4574 383.681 52.2275C383.918 52.9932 384.036 53.9137 384.036 54.9893ZM378.588 54.9893C378.588 56.3883 378.752 57.4342 379.08 58.127C379.413 58.8197 379.964 59.166 380.734 59.166C381.505 59.166 382.056 58.8219 382.389 58.1338C382.721 57.4411 382.888 56.3929 382.888 54.9893C382.888 54.0732 382.817 53.3076 382.676 52.6924C382.535 52.0726 382.307 51.6077 381.992 51.2979C381.678 50.9834 381.258 50.8262 380.734 50.8262C380.21 50.8262 379.791 50.9834 379.477 51.2979C379.162 51.6077 378.934 52.0726 378.793 52.6924C378.656 53.3076 378.588 54.0732 378.588 54.9893ZM392.198 54.9893C392.198 55.8005 392.137 56.5251 392.014 57.1631C391.891 57.8011 391.697 58.3411 391.433 58.7832C391.168 59.2253 390.826 59.5625 390.407 59.7949C389.988 60.0228 389.484 60.1367 388.896 60.1367C388.336 60.1367 387.848 60.0228 387.434 59.7949C387.023 59.5625 386.682 59.2275 386.408 58.79C386.139 58.348 385.939 57.8079 385.807 57.1699C385.674 56.5319 385.608 55.805 385.608 54.9893C385.608 53.9183 385.715 53 385.93 52.2344C386.148 51.4688 386.497 50.8809 386.976 50.4707C387.459 50.056 388.099 49.8486 388.896 49.8486C389.653 49.8486 390.273 50.0537 390.756 50.4639C391.243 50.8695 391.606 51.4574 391.843 52.2275C392.08 52.9932 392.198 53.9137 392.198 54.9893ZM386.75 54.9893C386.75 56.3883 386.914 57.4342 387.242 58.127C387.575 58.8197 388.126 59.166 388.896 59.166C389.667 59.166 390.218 58.8219 390.551 58.1338C390.883 57.4411 391.05 56.3929 391.05 54.9893C391.05 54.0732 390.979 53.3076 390.838 52.6924C390.697 52.0726 390.469 51.6077 390.154 51.2979C389.84 50.9834 389.421 50.8262 388.896 50.8262C388.372 50.8262 387.953 50.9834 387.639 51.2979C387.324 51.6077 387.096 52.0726 386.955 52.6924C386.818 53.3076 386.75 54.0732 386.75 54.9893ZM397.701 52.3711C398.635 52.3711 399.381 52.6924 399.937 53.335C400.493 53.9775 400.771 54.9437 400.771 56.2334C400.771 57.0856 400.643 57.8011 400.388 58.3799C400.132 58.9587 399.772 59.3962 399.308 59.6924C398.847 59.9886 398.303 60.1367 397.674 60.1367C397.277 60.1367 396.929 60.0843 396.628 59.9795C396.327 59.8747 396.07 59.7334 395.855 59.5557C395.641 59.3779 395.464 59.1842 395.322 58.9746H395.24C395.254 59.1523 395.27 59.3665 395.288 59.6172C395.311 59.8678 395.322 60.0866 395.322 60.2734V63.3496H394.181V52.5078H395.117L395.268 53.6152H395.322C395.468 53.3874 395.646 53.18 395.855 52.9932C396.065 52.8018 396.32 52.6514 396.621 52.542C396.926 52.4281 397.286 52.3711 397.701 52.3711ZM397.503 53.3281C396.983 53.3281 396.564 53.4284 396.245 53.6289C395.931 53.8294 395.701 54.1302 395.555 54.5312C395.409 54.9277 395.331 55.4268 395.322 56.0283V56.2471C395.322 56.8805 395.391 57.416 395.527 57.8535C395.669 58.291 395.899 58.6237 396.218 58.8516C396.541 59.0794 396.974 59.1934 397.517 59.1934C397.981 59.1934 398.369 59.068 398.679 58.8174C398.989 58.5667 399.219 58.2181 399.369 57.7715C399.524 57.3203 399.602 56.8031 399.602 56.2197C399.602 55.3356 399.428 54.6338 399.082 54.1143C398.74 53.5902 398.214 53.3281 397.503 53.3281ZM410.888 52.3711C411.713 52.3711 412.335 52.5876 412.754 53.0205C413.173 53.4489 413.383 54.1393 413.383 55.0918V60H412.262V55.1465C412.262 54.5404 412.13 54.0869 411.865 53.7861C411.605 53.4808 411.218 53.3281 410.703 53.3281C409.979 53.3281 409.452 53.5378 409.124 53.957C408.796 54.3763 408.632 54.9938 408.632 55.8096V60H407.504V55.1465C407.504 54.7409 407.445 54.4036 407.326 54.1348C407.212 53.8659 407.039 53.6654 406.807 53.5332C406.579 53.3965 406.289 53.3281 405.938 53.3281C405.442 53.3281 405.043 53.4307 404.742 53.6357C404.441 53.8408 404.223 54.1462 404.086 54.5518C403.954 54.9528 403.888 55.4473 403.888 56.0352V60H402.753V52.5078H403.669L403.84 53.5674H403.901C404.052 53.3076 404.241 53.0889 404.469 52.9111C404.697 52.7334 404.952 52.599 405.234 52.5078C405.517 52.4167 405.818 52.3711 406.137 52.3711C406.706 52.3711 407.183 52.4782 407.565 52.6924C407.953 52.902 408.233 53.2233 408.406 53.6562H408.468C408.714 53.2233 409.051 52.902 409.479 52.6924C409.908 52.4782 410.377 52.3711 410.888 52.3711Z" fill="#2BACEF"/>
<path d="M52.7812 28.5781V38.3984H54.2422V43.1562H52.4375V40H44.8906V43.1562H43.0859V38.3984H43.9688C44.3125 37.7682 44.638 37.0807 44.9453 36.3359C45.2526 35.5859 45.5339 34.7943 45.7891 33.9609C46.0443 33.1276 46.2604 32.2604 46.4375 31.3594C46.6198 30.4531 46.7552 29.526 46.8438 28.5781H52.7812ZM50.9141 30.1797H48.3906C48.3281 30.7786 48.2214 31.4349 48.0703 32.1484C47.9245 32.8568 47.7422 33.5807 47.5234 34.3203C47.3047 35.0599 47.0599 35.7786 46.7891 36.4766C46.5234 37.1745 46.2422 37.8151 45.9453 38.3984H50.9141V30.1797ZM63.5625 35.6562C63.5625 36.375 63.4688 37.013 63.2812 37.5703C63.0938 38.1276 62.8203 38.599 62.4609 38.9844C62.1016 39.3646 61.6693 39.6562 61.1641 39.8594C60.6589 40.0573 60.0885 40.1562 59.4531 40.1562C58.8594 40.1562 58.3151 40.0573 57.8203 39.8594C57.3255 39.6562 56.8958 39.3646 56.5312 38.9844C56.1719 38.599 55.8932 38.1276 55.6953 37.5703C55.4974 37.013 55.3984 36.375 55.3984 35.6562C55.3984 34.7031 55.5625 33.8958 55.8906 33.2344C56.224 32.5677 56.6979 32.0599 57.3125 31.7109C57.9271 31.362 58.6589 31.1875 59.5078 31.1875C60.3047 31.1875 61.0078 31.362 61.6172 31.7109C62.2266 32.0599 62.7031 32.5677 63.0469 33.2344C63.3906 33.901 63.5625 34.7083 63.5625 35.6562ZM57.2891 35.6562C57.2891 36.2865 57.3646 36.8255 57.5156 37.2734C57.6719 37.7214 57.9115 38.0651 58.2344 38.3047C58.5573 38.5391 58.974 38.6562 59.4844 38.6562C59.9948 38.6562 60.4115 38.5391 60.7344 38.3047C61.0573 38.0651 61.2943 37.7214 61.4453 37.2734C61.5964 36.8255 61.6719 36.2865 61.6719 35.6562C61.6719 35.026 61.5964 34.4922 61.4453 34.0547C61.2943 33.612 61.0573 33.276 60.7344 33.0469C60.4115 32.8125 59.9922 32.6953 59.4766 32.6953C58.7161 32.6953 58.1615 32.9505 57.8125 33.4609C57.4635 33.9714 57.2891 34.7031 57.2891 35.6562ZM65.1797 34.8125C65.1797 33.5573 65.3177 32.4896 65.5938 31.6094C65.8698 30.7292 66.3047 30.0234 66.8984 29.4922C67.4922 28.9609 68.263 28.599 69.2109 28.4062C69.8255 28.2656 70.4505 28.1458 71.0859 28.0469C71.7214 27.9479 72.3568 27.8516 72.9922 27.7578L73.2422 29.375C72.9453 29.4115 72.6276 29.4557 72.2891 29.5078C71.9505 29.5547 71.6094 29.6042 71.2656 29.6562C70.9271 29.7083 70.6016 29.763 70.2891 29.8203C69.9818 29.8724 69.7057 29.9245 69.4609 29.9766C68.9714 30.0807 68.5573 30.2526 68.2188 30.4922C67.8854 30.7266 67.625 31.0703 67.4375 31.5234C67.25 31.9766 67.138 32.5807 67.1016 33.3359H67.2031C67.3438 33.1224 67.5391 32.9089 67.7891 32.6953C68.0391 32.4818 68.3411 32.3047 68.6953 32.1641C69.0547 32.0182 69.4635 31.9453 69.9219 31.9453C70.6406 31.9453 71.25 32.0964 71.75 32.3984C72.2552 32.7005 72.638 33.138 72.8984 33.7109C73.1641 34.2839 73.2969 34.974 73.2969 35.7812C73.2969 36.7448 73.125 37.5521 72.7812 38.2031C72.4427 38.849 71.9688 39.3359 71.3594 39.6641C70.75 39.9922 70.0391 40.1562 69.2266 40.1562C68.6016 40.1562 68.0391 40.0391 67.5391 39.8047C67.0443 39.5703 66.6198 39.2266 66.2656 38.7734C65.9167 38.3151 65.6484 37.7552 65.4609 37.0938C65.2734 36.4271 65.1797 35.6667 65.1797 34.8125ZM69.3516 38.6484C69.7682 38.6484 70.1276 38.5599 70.4297 38.3828C70.737 38.2057 70.974 37.9193 71.1406 37.5234C71.3125 37.1276 71.3984 36.6042 71.3984 35.9531C71.3984 35.151 71.2526 34.5208 70.9609 34.0625C70.6745 33.599 70.2005 33.3672 69.5391 33.3672C69.1328 33.3672 68.7604 33.4583 68.4219 33.6406C68.0833 33.8229 67.7969 34.0365 67.5625 34.2812C67.3281 34.5208 67.1615 34.7318 67.0625 34.9141C67.0625 35.388 67.0964 35.8464 67.1641 36.2891C67.237 36.7318 67.3568 37.1328 67.5234 37.4922C67.6953 37.8464 67.9297 38.1276 68.2266 38.3359C68.5234 38.5443 68.8984 38.6484 69.3516 38.6484ZM79.8438 31.1875C80.8698 31.1875 81.6927 31.5625 82.3125 32.3125C82.9375 33.0625 83.25 34.1771 83.25 35.6562C83.25 36.6354 83.1042 37.4609 82.8125 38.1328C82.526 38.7995 82.1224 39.3047 81.6016 39.6484C81.0859 39.987 80.4844 40.1562 79.7969 40.1562C79.3594 40.1562 78.9792 40.099 78.6562 39.9844C78.3333 39.8698 78.0573 39.7214 77.8281 39.5391C77.599 39.3516 77.4062 39.1484 77.25 38.9297H77.1406C77.1667 39.138 77.1901 39.3698 77.2109 39.625C77.237 39.875 77.25 40.1042 77.25 40.3125V43.8359H75.4062V31.3516H76.9062L77.1641 32.5469H77.25C77.4115 32.3021 77.6068 32.0755 77.8359 31.8672C78.0703 31.6589 78.3516 31.4948 78.6797 31.375C79.013 31.25 79.401 31.1875 79.8438 31.1875ZM79.3516 32.6875C78.8464 32.6875 78.4401 32.7891 78.1328 32.9922C77.8307 33.1901 77.6094 33.4896 77.4688 33.8906C77.3333 34.2917 77.2604 34.7943 77.25 35.3984V35.6562C77.25 36.2969 77.3151 36.8411 77.4453 37.2891C77.5807 37.7318 77.8021 38.0703 78.1094 38.3047C78.4219 38.5339 78.8438 38.6484 79.375 38.6484C79.8229 38.6484 80.1927 38.526 80.4844 38.2812C80.7812 38.0365 81.0026 37.6875 81.1484 37.2344C81.2943 36.7812 81.3672 36.2474 81.3672 35.6328C81.3672 34.7005 81.2005 33.9766 80.8672 33.4609C80.5391 32.9453 80.0339 32.6875 79.3516 32.6875ZM85.375 40V31.3516H87.2188V34.8047H88.9609C89.7734 34.8047 90.4427 34.8984 90.9688 35.0859C91.4948 35.2682 91.8854 35.5443 92.1406 35.9141C92.3958 36.2839 92.5234 36.7474 92.5234 37.3047C92.5234 37.8516 92.401 38.3281 92.1562 38.7344C91.9115 39.1354 91.5286 39.4479 91.0078 39.6719C90.487 39.8906 89.8047 40 88.9609 40H85.375ZM87.2188 38.6484H88.8359C89.388 38.6484 89.8333 38.5495 90.1719 38.3516C90.5156 38.1484 90.6875 37.8151 90.6875 37.3516C90.6875 36.9193 90.5286 36.6146 90.2109 36.4375C89.8984 36.2552 89.4401 36.1641 88.8359 36.1641H87.2188V38.6484ZM93.8594 40V31.3516H95.7031V40H93.8594ZM100.094 31.3516V35.7656C100.094 35.9062 100.089 36.0859 100.078 36.3047C100.073 36.5182 100.062 36.7422 100.047 36.9766C100.031 37.2057 100.016 37.4167 100 37.6094C99.9844 37.8021 99.9714 37.9453 99.9609 38.0391L104.312 31.3516H106.547V40H104.789V35.6328C104.789 35.4036 104.794 35.138 104.805 34.8359C104.82 34.5339 104.836 34.2422 104.852 33.9609C104.872 33.6797 104.885 33.4661 104.891 33.3203L100.555 40H98.3281V31.3516H100.094ZM105.898 27.7109C105.846 28.2474 105.701 28.7109 105.461 29.1016C105.227 29.487 104.87 29.7839 104.391 29.9922C103.911 30.2005 103.281 30.3047 102.5 30.3047C101.693 30.3047 101.055 30.2057 100.586 30.0078C100.117 29.8047 99.7786 29.5104 99.5703 29.125C99.362 28.7344 99.237 28.263 99.1953 27.7109H100.867C100.919 28.2891 101.07 28.6797 101.32 28.8828C101.57 29.0807 101.974 29.1797 102.531 29.1797C103.01 29.1797 103.393 29.0729 103.68 28.8594C103.971 28.6458 104.146 28.263 104.203 27.7109H105.898ZM120.406 31.3516V38.5781H121.656V43.0469H119.961V40H113.992V43.0469H112.297V38.5781H113C113.438 37.9427 113.802 37.2344 114.094 36.4531C114.391 35.6719 114.62 34.849 114.781 33.9844C114.948 33.1146 115.052 32.237 115.094 31.3516H120.406ZM118.586 32.7578H116.672C116.609 33.4609 116.503 34.1615 116.352 34.8594C116.201 35.5521 116.005 36.2161 115.766 36.8516C115.531 37.4818 115.25 38.0573 114.922 38.5781H118.586V32.7578ZM126.711 31.1875C127.482 31.1875 128.143 31.3464 128.695 31.6641C129.247 31.9818 129.672 32.4323 129.969 33.0156C130.266 33.599 130.414 34.2969 130.414 35.1094V36.0938H124.641C124.661 36.9323 124.885 37.5781 125.312 38.0312C125.745 38.4844 126.349 38.7109 127.125 38.7109C127.677 38.7109 128.172 38.6589 128.609 38.5547C129.052 38.4453 129.508 38.2865 129.977 38.0781V39.5703C129.544 39.7734 129.104 39.9219 128.656 40.0156C128.208 40.1094 127.672 40.1562 127.047 40.1562C126.198 40.1562 125.451 39.9922 124.805 39.6641C124.164 39.3307 123.661 38.8359 123.297 38.1797C122.938 37.5234 122.758 36.7083 122.758 35.7344C122.758 34.7656 122.922 33.9427 123.25 33.2656C123.578 32.5885 124.039 32.0729 124.633 31.7188C125.227 31.3646 125.919 31.1875 126.711 31.1875ZM126.711 32.5703C126.133 32.5703 125.664 32.7578 125.305 33.1328C124.951 33.5078 124.742 34.0573 124.68 34.7812H128.617C128.612 34.349 128.539 33.9661 128.398 33.6328C128.263 33.2995 128.055 33.0391 127.773 32.8516C127.497 32.6641 127.143 32.5703 126.711 32.5703ZM134.328 31.3516V34.8281H138.375V31.3516H140.219V40H138.375V36.2656H134.328V40H132.484V31.3516H134.328ZM144.688 34.8047H146.836C147.648 34.8047 148.32 34.8984 148.852 35.0859C149.388 35.2682 149.789 35.5443 150.055 35.9141C150.32 36.2839 150.453 36.7474 150.453 37.3047C150.453 37.8516 150.328 38.3281 150.078 38.7344C149.828 39.1354 149.438 39.4479 148.906 39.6719C148.38 39.8906 147.693 40 146.844 40H142.844V31.3516H144.688V34.8047ZM148.609 37.3516C148.609 36.9193 148.448 36.6146 148.125 36.4375C147.802 36.2552 147.341 36.1641 146.742 36.1641H144.688V38.6484H146.758C147.305 38.6484 147.75 38.5495 148.094 38.3516C148.438 38.1484 148.609 37.8151 148.609 37.3516ZM154.336 38.1406L154.445 38.3203C154.352 38.6953 154.232 39.099 154.086 39.5312C153.94 39.9635 153.781 40.3958 153.609 40.8281C153.438 41.2656 153.263 41.6771 153.086 42.0625H151.742C151.852 41.6406 151.956 41.1979 152.055 40.7344C152.159 40.276 152.253 39.8229 152.336 39.375C152.424 38.9219 152.495 38.5104 152.547 38.1406H154.336ZM168.273 33.5703C168.273 34.0703 168.12 34.4792 167.812 34.7969C167.51 35.1094 167.094 35.3151 166.562 35.4141V35.4766C167.13 35.5495 167.604 35.75 167.984 36.0781C168.365 36.4062 168.555 36.862 168.555 37.4453C168.555 37.9401 168.43 38.3802 168.18 38.7656C167.935 39.1458 167.544 39.4479 167.008 39.6719C166.477 39.8906 165.781 40 164.922 40H161V31.3516H164.906C165.552 31.3516 166.128 31.4219 166.633 31.5625C167.143 31.7031 167.544 31.9349 167.836 32.2578C168.128 32.5807 168.273 33.0182 168.273 33.5703ZM166.641 37.3828C166.641 36.9557 166.477 36.6484 166.148 36.4609C165.826 36.2734 165.352 36.1797 164.727 36.1797H162.844V38.6484H164.766C165.349 38.6484 165.807 38.5521 166.141 38.3594C166.474 38.1615 166.641 37.8359 166.641 37.3828ZM166.406 33.7344C166.406 33.3958 166.279 33.1458 166.023 32.9844C165.768 32.8177 165.367 32.7344 164.82 32.7344H162.844V34.8281H164.57C165.174 34.8281 165.63 34.7422 165.938 34.5703C166.25 34.3932 166.406 34.1146 166.406 33.7344ZM174.016 31.1875C175.109 31.1875 175.935 31.4297 176.492 31.9141C177.055 32.3984 177.336 33.1536 177.336 34.1797V40H176.031L175.68 38.7734H175.617C175.372 39.0859 175.12 39.3438 174.859 39.5469C174.599 39.75 174.297 39.901 173.953 40C173.615 40.1042 173.201 40.1562 172.711 40.1562C172.195 40.1562 171.734 40.0625 171.328 39.875C170.922 39.6823 170.602 39.3906 170.367 39C170.133 38.6094 170.016 38.1146 170.016 37.5156C170.016 36.625 170.346 35.9557 171.008 35.5078C171.674 35.0599 172.68 34.8125 174.023 34.7656L175.523 34.7109V34.2578C175.523 33.6589 175.383 33.2318 175.102 32.9766C174.826 32.7214 174.435 32.5938 173.93 32.5938C173.497 32.5938 173.078 32.6562 172.672 32.7812C172.266 32.9062 171.87 33.0599 171.484 33.2422L170.891 31.9453C171.312 31.7214 171.792 31.5391 172.328 31.3984C172.87 31.2578 173.432 31.1875 174.016 31.1875ZM175.516 35.8672L174.398 35.9062C173.482 35.9375 172.839 36.0938 172.469 36.375C172.099 36.6562 171.914 37.0417 171.914 37.5312C171.914 37.9583 172.042 38.2708 172.297 38.4688C172.552 38.6615 172.888 38.7578 173.305 38.7578C173.94 38.7578 174.466 38.5781 174.883 38.2188C175.305 37.8542 175.516 37.3203 175.516 36.6172V35.8672ZM192.148 31.3516V40H179.906V31.3516H181.742V38.5547H185.102V31.3516H186.945V38.5547H190.312V31.3516H192.148ZM198.172 31.1875C199.266 31.1875 200.091 31.4297 200.648 31.9141C201.211 32.3984 201.492 33.1536 201.492 34.1797V40H200.188L199.836 38.7734H199.773C199.529 39.0859 199.276 39.3438 199.016 39.5469C198.755 39.75 198.453 39.901 198.109 40C197.771 40.1042 197.357 40.1562 196.867 40.1562C196.352 40.1562 195.891 40.0625 195.484 39.875C195.078 39.6823 194.758 39.3906 194.523 39C194.289 38.6094 194.172 38.1146 194.172 37.5156C194.172 36.625 194.503 35.9557 195.164 35.5078C195.831 35.0599 196.836 34.8125 198.18 34.7656L199.68 34.7109V34.2578C199.68 33.6589 199.539 33.2318 199.258 32.9766C198.982 32.7214 198.591 32.5938 198.086 32.5938C197.654 32.5938 197.234 32.6562 196.828 32.7812C196.422 32.9062 196.026 33.0599 195.641 33.2422L195.047 31.9453C195.469 31.7214 195.948 31.5391 196.484 31.3984C197.026 31.2578 197.589 31.1875 198.172 31.1875ZM199.672 35.8672L198.555 35.9062C197.638 35.9375 196.995 36.0938 196.625 36.375C196.255 36.6562 196.07 37.0417 196.07 37.5312C196.07 37.9583 196.198 38.2708 196.453 38.4688C196.708 38.6615 197.044 38.7578 197.461 38.7578C198.096 38.7578 198.622 38.5781 199.039 38.2188C199.461 37.8542 199.672 37.3203 199.672 36.6172V35.8672ZM215.773 31.3516V40H213.922V32.8047H210.062V40H208.219V31.3516H215.773ZM226.062 35.6562C226.062 36.375 225.969 37.013 225.781 37.5703C225.594 38.1276 225.32 38.599 224.961 38.9844C224.602 39.3646 224.169 39.6562 223.664 39.8594C223.159 40.0573 222.589 40.1562 221.953 40.1562C221.359 40.1562 220.815 40.0573 220.32 39.8594C219.826 39.6562 219.396 39.3646 219.031 38.9844C218.672 38.599 218.393 38.1276 218.195 37.5703C217.997 37.013 217.898 36.375 217.898 35.6562C217.898 34.7031 218.062 33.8958 218.391 33.2344C218.724 32.5677 219.198 32.0599 219.812 31.7109C220.427 31.362 221.159 31.1875 222.008 31.1875C222.805 31.1875 223.508 31.362 224.117 31.7109C224.727 32.0599 225.203 32.5677 225.547 33.2344C225.891 33.901 226.062 34.7083 226.062 35.6562ZM219.789 35.6562C219.789 36.2865 219.865 36.8255 220.016 37.2734C220.172 37.7214 220.411 38.0651 220.734 38.3047C221.057 38.5391 221.474 38.6562 221.984 38.6562C222.495 38.6562 222.911 38.5391 223.234 38.3047C223.557 38.0651 223.794 37.7214 223.945 37.2734C224.096 36.8255 224.172 36.2865 224.172 35.6562C224.172 35.026 224.096 34.4922 223.945 34.0547C223.794 33.612 223.557 33.276 223.234 33.0469C222.911 32.8125 222.492 32.6953 221.977 32.6953C221.216 32.6953 220.661 32.9505 220.312 33.4609C219.964 33.9714 219.789 34.7031 219.789 35.6562ZM231.656 40.1562C230.839 40.1562 230.13 39.9974 229.531 39.6797C228.932 39.362 228.471 38.875 228.148 38.2188C227.826 37.5625 227.664 36.7292 227.664 35.7188C227.664 34.6667 227.841 33.8073 228.195 33.1406C228.549 32.474 229.039 31.9818 229.664 31.6641C230.294 31.3464 231.016 31.1875 231.828 31.1875C232.344 31.1875 232.81 31.2396 233.227 31.3438C233.648 31.4427 234.005 31.5651 234.297 31.7109L233.75 33.1797C233.432 33.0495 233.107 32.9401 232.773 32.8516C232.44 32.763 232.12 32.7188 231.812 32.7188C231.307 32.7188 230.885 32.8307 230.547 33.0547C230.214 33.2786 229.964 33.612 229.797 34.0547C229.635 34.4974 229.555 35.0469 229.555 35.7031C229.555 36.3385 229.638 36.875 229.805 37.3125C229.971 37.7448 230.219 38.0729 230.547 38.2969C230.875 38.5156 231.279 38.625 231.758 38.625C232.232 38.625 232.656 38.5677 233.031 38.4531C233.406 38.3385 233.76 38.1901 234.094 38.0078V39.6016C233.766 39.7891 233.414 39.9271 233.039 40.0156C232.664 40.1094 232.203 40.1562 231.656 40.1562ZM236.125 40V31.3516H237.969V34.8047H239.711C240.523 34.8047 241.193 34.8984 241.719 35.0859C242.245 35.2682 242.635 35.5443 242.891 35.9141C243.146 36.2839 243.273 36.7474 243.273 37.3047C243.273 37.8516 243.151 38.3281 242.906 38.7344C242.661 39.1354 242.279 39.4479 241.758 39.6719C241.237 39.8906 240.555 40 239.711 40H236.125ZM237.969 38.6484H239.586C240.138 38.6484 240.583 38.5495 240.922 38.3516C241.266 38.1484 241.438 37.8151 241.438 37.3516C241.438 36.9193 241.279 36.6146 240.961 36.4375C240.648 36.2552 240.19 36.1641 239.586 36.1641H237.969V38.6484ZM244.609 40V31.3516H246.453V40H244.609ZM256.195 40H254.344V32.7891H251.945C251.841 34.1016 251.711 35.224 251.555 36.1562C251.398 37.0885 251.203 37.849 250.969 38.4375C250.734 39.0208 250.445 39.4479 250.102 39.7188C249.758 39.9896 249.344 40.125 248.859 40.125C248.646 40.125 248.453 40.1094 248.281 40.0781C248.109 40.0521 247.956 40.0104 247.82 39.9531V38.5078C247.909 38.5391 248.005 38.5651 248.109 38.5859C248.214 38.6068 248.32 38.6172 248.43 38.6172C248.622 38.6172 248.799 38.5391 248.961 38.3828C249.128 38.2214 249.281 37.9688 249.422 37.625C249.562 37.2812 249.69 36.8281 249.805 36.2656C249.919 35.6979 250.023 35.0104 250.117 34.2031C250.211 33.3906 250.294 32.4401 250.367 31.3516H256.195V40ZM264.188 31.3516H266.211L262.633 35.5078L266.516 40H264.398L260.672 35.6094V40H258.828V31.3516H260.672V35.5469L264.188 31.3516ZM271.312 31.1875C272.406 31.1875 273.232 31.4297 273.789 31.9141C274.352 32.3984 274.633 33.1536 274.633 34.1797V40H273.328L272.977 38.7734H272.914C272.669 39.0859 272.417 39.3438 272.156 39.5469C271.896 39.75 271.594 39.901 271.25 40C270.911 40.1042 270.497 40.1562 270.008 40.1562C269.492 40.1562 269.031 40.0625 268.625 39.875C268.219 39.6823 267.898 39.3906 267.664 39C267.43 38.6094 267.312 38.1146 267.312 37.5156C267.312 36.625 267.643 35.9557 268.305 35.5078C268.971 35.0599 269.977 34.8125 271.32 34.7656L272.82 34.7109V34.2578C272.82 33.6589 272.68 33.2318 272.398 32.9766C272.122 32.7214 271.732 32.5938 271.227 32.5938C270.794 32.5938 270.375 32.6562 269.969 32.7812C269.562 32.9062 269.167 33.0599 268.781 33.2422L268.188 31.9453C268.609 31.7214 269.089 31.5391 269.625 31.3984C270.167 31.2578 270.729 31.1875 271.312 31.1875ZM272.812 35.8672L271.695 35.9062C270.779 35.9375 270.135 36.0938 269.766 36.375C269.396 36.6562 269.211 37.0417 269.211 37.5312C269.211 37.9583 269.339 38.2708 269.594 38.4688C269.849 38.6615 270.185 38.7578 270.602 38.7578C271.237 38.7578 271.763 38.5781 272.18 38.2188C272.602 37.8542 272.812 37.3203 272.812 36.6172V35.8672ZM286.969 31.3516V32.7969H283.203V40H281.359V31.3516H286.969ZM296.297 35.6562C296.297 36.375 296.203 37.013 296.016 37.5703C295.828 38.1276 295.555 38.599 295.195 38.9844C294.836 39.3646 294.404 39.6562 293.898 39.8594C293.393 40.0573 292.823 40.1562 292.188 40.1562C291.594 40.1562 291.049 40.0573 290.555 39.8594C290.06 39.6562 289.63 39.3646 289.266 38.9844C288.906 38.599 288.628 38.1276 288.43 37.5703C288.232 37.013 288.133 36.375 288.133 35.6562C288.133 34.7031 288.297 33.8958 288.625 33.2344C288.958 32.5677 289.432 32.0599 290.047 31.7109C290.661 31.362 291.393 31.1875 292.242 31.1875C293.039 31.1875 293.742 31.362 294.352 31.7109C294.961 32.0599 295.438 32.5677 295.781 33.2344C296.125 33.901 296.297 34.7083 296.297 35.6562ZM290.023 35.6562C290.023 36.2865 290.099 36.8255 290.25 37.2734C290.406 37.7214 290.646 38.0651 290.969 38.3047C291.292 38.5391 291.708 38.6562 292.219 38.6562C292.729 38.6562 293.146 38.5391 293.469 38.3047C293.792 38.0651 294.029 37.7214 294.18 37.2734C294.331 36.8255 294.406 36.2865 294.406 35.6562C294.406 35.026 294.331 34.4922 294.18 34.0547C294.029 33.612 293.792 33.276 293.469 33.0469C293.146 32.8125 292.727 32.6953 292.211 32.6953C291.451 32.6953 290.896 32.9505 290.547 33.4609C290.198 33.9714 290.023 34.7031 290.023 35.6562ZM304.938 32.7969H302.094V40H300.266V32.7969H297.438V31.3516H304.938V32.7969ZM314.266 35.6562C314.266 36.375 314.172 37.013 313.984 37.5703C313.797 38.1276 313.523 38.599 313.164 38.9844C312.805 39.3646 312.372 39.6562 311.867 39.8594C311.362 40.0573 310.792 40.1562 310.156 40.1562C309.562 40.1562 309.018 40.0573 308.523 39.8594C308.029 39.6562 307.599 39.3646 307.234 38.9844C306.875 38.599 306.596 38.1276 306.398 37.5703C306.201 37.013 306.102 36.375 306.102 35.6562C306.102 34.7031 306.266 33.8958 306.594 33.2344C306.927 32.5677 307.401 32.0599 308.016 31.7109C308.63 31.362 309.362 31.1875 310.211 31.1875C311.008 31.1875 311.711 31.362 312.32 31.7109C312.93 32.0599 313.406 32.5677 313.75 33.2344C314.094 33.901 314.266 34.7083 314.266 35.6562ZM307.992 35.6562C307.992 36.2865 308.068 36.8255 308.219 37.2734C308.375 37.7214 308.615 38.0651 308.938 38.3047C309.26 38.5391 309.677 38.6562 310.188 38.6562C310.698 38.6562 311.115 38.5391 311.438 38.3047C311.76 38.0651 311.997 37.7214 312.148 37.2734C312.299 36.8255 312.375 36.2865 312.375 35.6562C312.375 35.026 312.299 34.4922 312.148 34.0547C311.997 33.612 311.76 33.276 311.438 33.0469C311.115 32.8125 310.695 32.6953 310.18 32.6953C309.419 32.6953 308.865 32.9505 308.516 33.4609C308.167 33.9714 307.992 34.7031 307.992 35.6562ZM323.648 33.5703C323.648 34.0703 323.495 34.4792 323.188 34.7969C322.885 35.1094 322.469 35.3151 321.938 35.4141V35.4766C322.505 35.5495 322.979 35.75 323.359 36.0781C323.74 36.4062 323.93 36.862 323.93 37.4453C323.93 37.9401 323.805 38.3802 323.555 38.7656C323.31 39.1458 322.919 39.4479 322.383 39.6719C321.852 39.8906 321.156 40 320.297 40H316.375V31.3516H320.281C320.927 31.3516 321.503 31.4219 322.008 31.5625C322.518 31.7031 322.919 31.9349 323.211 32.2578C323.503 32.5807 323.648 33.0182 323.648 33.5703ZM322.016 37.3828C322.016 36.9557 321.852 36.6484 321.523 36.4609C321.201 36.2734 320.727 36.1797 320.102 36.1797H318.219V38.6484H320.141C320.724 38.6484 321.182 38.5521 321.516 38.3594C321.849 38.1615 322.016 37.8359 322.016 37.3828ZM321.781 33.7344C321.781 33.3958 321.654 33.1458 321.398 32.9844C321.143 32.8177 320.742 32.7344 320.195 32.7344H318.219V34.8281H319.945C320.549 34.8281 321.005 34.7422 321.312 34.5703C321.625 34.3932 321.781 34.1146 321.781 33.7344ZM329.391 31.1875C330.484 31.1875 331.31 31.4297 331.867 31.9141C332.43 32.3984 332.711 33.1536 332.711 34.1797V40H331.406L331.055 38.7734H330.992C330.747 39.0859 330.495 39.3438 330.234 39.5469C329.974 39.75 329.672 39.901 329.328 40C328.99 40.1042 328.576 40.1562 328.086 40.1562C327.57 40.1562 327.109 40.0625 326.703 39.875C326.297 39.6823 325.977 39.3906 325.742 39C325.508 38.6094 325.391 38.1146 325.391 37.5156C325.391 36.625 325.721 35.9557 326.383 35.5078C327.049 35.0599 328.055 34.8125 329.398 34.7656L330.898 34.7109V34.2578C330.898 33.6589 330.758 33.2318 330.477 32.9766C330.201 32.7214 329.81 32.5938 329.305 32.5938C328.872 32.5938 328.453 32.6562 328.047 32.7812C327.641 32.9062 327.245 33.0599 326.859 33.2422L326.266 31.9453C326.688 31.7214 327.167 31.5391 327.703 31.3984C328.245 31.2578 328.807 31.1875 329.391 31.1875ZM330.891 35.8672L329.773 35.9062C328.857 35.9375 328.214 36.0938 327.844 36.375C327.474 36.6562 327.289 37.0417 327.289 37.5312C327.289 37.9583 327.417 38.2708 327.672 38.4688C327.927 38.6615 328.263 38.7578 328.68 38.7578C329.315 38.7578 329.841 38.5781 330.258 38.2188C330.68 37.8542 330.891 37.3203 330.891 36.6172V35.8672ZM344.797 31.3516H346.82L343.242 35.5078L347.125 40H345.008L341.281 35.6094V40H339.438V31.3516H341.281V35.5469L344.797 31.3516ZM51.9688 56.6562C51.9688 57.375 51.875 58.013 51.6875 58.5703C51.5 59.1276 51.2266 59.599 50.8672 59.9844C50.5078 60.3646 50.0755 60.6562 49.5703 60.8594C49.0651 61.0573 48.4948 61.1562 47.8594 61.1562C47.2656 61.1562 46.7214 61.0573 46.2266 60.8594C45.7318 60.6562 45.3021 60.3646 44.9375 59.9844C44.5781 59.599 44.2995 59.1276 44.1016 58.5703C43.9036 58.013 43.8047 57.375 43.8047 56.6562C43.8047 55.7031 43.9688 54.8958 44.2969 54.2344C44.6302 53.5677 45.1042 53.0599 45.7188 52.7109C46.3333 52.362 47.0651 52.1875 47.9141 52.1875C48.7109 52.1875 49.4141 52.362 50.0234 52.7109C50.6328 53.0599 51.1094 53.5677 51.4531 54.2344C51.7969 54.901 51.9688 55.7083 51.9688 56.6562ZM45.6953 56.6562C45.6953 57.2865 45.7708 57.8255 45.9219 58.2734C46.0781 58.7214 46.3177 59.0651 46.6406 59.3047C46.9635 59.5391 47.3802 59.6562 47.8906 59.6562C48.401 59.6562 48.8177 59.5391 49.1406 59.3047C49.4635 59.0651 49.7005 58.7214 49.8516 58.2734C50.0026 57.8255 50.0781 57.2865 50.0781 56.6562C50.0781 56.026 50.0026 55.4922 49.8516 55.0547C49.7005 54.612 49.4635 54.276 49.1406 54.0469C48.8177 53.8125 48.3984 53.6953 47.8828 53.6953C47.1224 53.6953 46.5677 53.9505 46.2188 54.4609C45.8698 54.9714 45.6953 55.7031 45.6953 56.6562ZM61.6328 52.3516V61H59.7812V53.8047H55.9219V61H54.0781V52.3516H61.6328ZM71.3828 61H69.5312V53.7891H67.1328C67.0286 55.1016 66.8984 56.224 66.7422 57.1562C66.5859 58.0885 66.3906 58.849 66.1562 59.4375C65.9219 60.0208 65.6328 60.4479 65.2891 60.7188C64.9453 60.9896 64.5312 61.125 64.0469 61.125C63.8333 61.125 63.6406 61.1094 63.4688 61.0781C63.2969 61.0521 63.1432 61.0104 63.0078 60.9531V59.5078C63.0964 59.5391 63.1927 59.5651 63.2969 59.5859C63.401 59.6068 63.5078 59.6172 63.6172 59.6172C63.8099 59.6172 63.987 59.5391 64.1484 59.3828C64.3151 59.2214 64.4688 58.9688 64.6094 58.625C64.75 58.2812 64.8776 57.8281 64.9922 57.2656C65.1068 56.6979 65.2109 56.0104 65.3047 55.2031C65.3984 54.3906 65.4818 53.4401 65.5547 52.3516H71.3828V61ZM77.4062 52.1875C78.5 52.1875 79.3255 52.4297 79.8828 52.9141C80.4453 53.3984 80.7266 54.1536 80.7266 55.1797V61H79.4219L79.0703 59.7734H79.0078C78.763 60.0859 78.5104 60.3438 78.25 60.5469C77.9896 60.75 77.6875 60.901 77.3438 61C77.0052 61.1042 76.5911 61.1562 76.1016 61.1562C75.5859 61.1562 75.125 61.0625 74.7188 60.875C74.3125 60.6823 73.9922 60.3906 73.7578 60C73.5234 59.6094 73.4062 59.1146 73.4062 58.5156C73.4062 57.625 73.737 56.9557 74.3984 56.5078C75.0651 56.0599 76.0703 55.8125 77.4141 55.7656L78.9141 55.7109V55.2578C78.9141 54.6589 78.7734 54.2318 78.4922 53.9766C78.2161 53.7214 77.8255 53.5938 77.3203 53.5938C76.888 53.5938 76.4688 53.6562 76.0625 53.7812C75.6562 53.9062 75.2604 54.0599 74.875 54.2422L74.2812 52.9453C74.7031 52.7214 75.1823 52.5391 75.7188 52.3984C76.2604 52.2578 76.8229 52.1875 77.4062 52.1875ZM78.9062 56.8672L77.7891 56.9062C76.8724 56.9375 76.2292 57.0938 75.8594 57.375C75.4896 57.6562 75.3047 58.0417 75.3047 58.5312C75.3047 58.9583 75.4323 59.2708 75.6875 59.4688C75.9427 59.6615 76.2786 59.7578 76.6953 59.7578C77.3307 59.7578 77.8568 59.5781 78.2734 59.2188C78.6953 58.8542 78.9062 58.3203 78.9062 57.6172V56.8672ZM89.8281 53.7969H86.9844V61H85.1562V53.7969H82.3281V52.3516H89.8281V53.7969ZM94.9453 52.1875C95.7161 52.1875 96.3776 52.3464 96.9297 52.6641C97.4818 52.9818 97.9062 53.4323 98.2031 54.0156C98.5 54.599 98.6484 55.2969 98.6484 56.1094V57.0938H92.875C92.8958 57.9323 93.1198 58.5781 93.5469 59.0312C93.9792 59.4844 94.5833 59.7109 95.3594 59.7109C95.9115 59.7109 96.4062 59.6589 96.8438 59.5547C97.2865 59.4453 97.7422 59.2865 98.2109 59.0781V60.5703C97.7786 60.7734 97.3385 60.9219 96.8906 61.0156C96.4427 61.1094 95.9062 61.1562 95.2812 61.1562C94.4323 61.1562 93.6849 60.9922 93.0391 60.6641C92.3984 60.3307 91.8958 59.8359 91.5312 59.1797C91.1719 58.5234 90.9922 57.7083 90.9922 56.7344C90.9922 55.7656 91.1562 54.9427 91.4844 54.2656C91.8125 53.5885 92.2734 53.0729 92.8672 52.7188C93.4609 52.3646 94.1536 52.1875 94.9453 52.1875ZM94.9453 53.5703C94.3672 53.5703 93.8984 53.7578 93.5391 54.1328C93.1849 54.5078 92.9766 55.0573 92.9141 55.7812H96.8516C96.8464 55.349 96.7734 54.9661 96.6328 54.6328C96.4974 54.2995 96.2891 54.0391 96.0078 53.8516C95.7318 53.6641 95.3776 53.5703 94.9453 53.5703ZM109.93 51.0078C109.383 51.0078 108.893 51.1068 108.461 51.3047C108.034 51.5026 107.672 51.7891 107.375 52.1641C107.078 52.5339 106.852 52.9844 106.695 53.5156C106.539 54.0417 106.461 54.6354 106.461 55.2969C106.461 56.1823 106.586 56.9453 106.836 57.5859C107.086 58.2214 107.466 58.7109 107.977 59.0547C108.487 59.3932 109.133 59.5625 109.914 59.5625C110.398 59.5625 110.87 59.5156 111.328 59.4219C111.786 59.3281 112.26 59.2005 112.75 59.0391V60.6328C112.286 60.8151 111.818 60.9479 111.344 61.0312C110.87 61.1146 110.323 61.1562 109.703 61.1562C108.536 61.1562 107.568 60.9141 106.797 60.4297C106.031 59.9453 105.458 59.263 105.078 58.3828C104.703 57.5026 104.516 56.4714 104.516 55.2891C104.516 54.4245 104.635 53.6328 104.875 52.9141C105.115 52.1953 105.464 51.5755 105.922 51.0547C106.38 50.5286 106.945 50.125 107.617 49.8438C108.294 49.5573 109.068 49.4141 109.938 49.4141C110.51 49.4141 111.073 49.4792 111.625 49.6094C112.182 49.7344 112.698 49.9141 113.172 50.1484L112.516 51.6953C112.12 51.5078 111.706 51.3464 111.273 51.2109C110.841 51.0755 110.393 51.0078 109.93 51.0078ZM113.711 52.3516H115.711L117.484 57.2891C117.562 57.513 117.633 57.7344 117.695 57.9531C117.763 58.1667 117.82 58.3776 117.867 58.5859C117.919 58.7943 117.961 59.0026 117.992 59.2109H118.039C118.091 58.9401 118.164 58.638 118.258 58.3047C118.357 57.9661 118.466 57.6276 118.586 57.2891L120.289 52.3516H122.266L118.555 62.1875C118.341 62.75 118.078 63.2292 117.766 63.625C117.458 64.026 117.094 64.3281 116.672 64.5312C116.25 64.7396 115.768 64.8438 115.227 64.8438C114.966 64.8438 114.74 64.8281 114.547 64.7969C114.354 64.7708 114.19 64.7422 114.055 64.7109V63.2422C114.164 63.2682 114.302 63.2917 114.469 63.3125C114.635 63.3333 114.807 63.3438 114.984 63.3438C115.312 63.3438 115.596 63.2786 115.836 63.1484C116.076 63.0182 116.279 62.8333 116.445 62.5938C116.612 62.3594 116.75 62.0911 116.859 61.7891L117.164 60.9766L113.711 52.3516ZM133.602 52.3516V61H131.898V56.0625C131.898 55.7396 131.906 55.4167 131.922 55.0938C131.938 54.7708 131.958 54.4635 131.984 54.1719H131.938L129.305 61H127.859L125.25 54.1641H125.195C125.221 54.4609 125.24 54.7682 125.25 55.0859C125.266 55.4036 125.273 55.7474 125.273 56.1172V61H123.57V52.3516H126.133L128.602 58.8125L131.109 52.3516H133.602ZM146.227 52.3516V61H144.523V56.0625C144.523 55.7396 144.531 55.4167 144.547 55.0938C144.562 54.7708 144.583 54.4635 144.609 54.1719H144.562L141.93 61H140.484L137.875 54.1641H137.82C137.846 54.4609 137.865 54.7682 137.875 55.0859C137.891 55.4036 137.898 55.7474 137.898 56.1172V61H136.195V52.3516H138.758L141.227 58.8125L143.734 52.3516H146.227ZM152.219 52.1875C153.312 52.1875 154.138 52.4297 154.695 52.9141C155.258 53.3984 155.539 54.1536 155.539 55.1797V61H154.234L153.883 59.7734H153.82C153.576 60.0859 153.323 60.3438 153.062 60.5469C152.802 60.75 152.5 60.901 152.156 61C151.818 61.1042 151.404 61.1562 150.914 61.1562C150.398 61.1562 149.938 61.0625 149.531 60.875C149.125 60.6823 148.805 60.3906 148.57 60C148.336 59.6094 148.219 59.1146 148.219 58.5156C148.219 57.625 148.549 56.9557 149.211 56.5078C149.878 56.0599 150.883 55.8125 152.227 55.7656L153.727 55.7109V55.2578C153.727 54.6589 153.586 54.2318 153.305 53.9766C153.029 53.7214 152.638 53.5938 152.133 53.5938C151.701 53.5938 151.281 53.6562 150.875 53.7812C150.469 53.9062 150.073 54.0599 149.688 54.2422L149.094 52.9453C149.516 52.7214 149.995 52.5391 150.531 52.3984C151.073 52.2578 151.635 52.1875 152.219 52.1875ZM153.719 56.8672L152.602 56.9062C151.685 56.9375 151.042 57.0938 150.672 57.375C150.302 57.6562 150.117 58.0417 150.117 58.5312C150.117 58.9583 150.245 59.2708 150.5 59.4688C150.755 59.6615 151.091 59.7578 151.508 59.7578C152.143 59.7578 152.669 59.5781 153.086 59.2188C153.508 58.8542 153.719 58.3203 153.719 57.6172V56.8672ZM157.844 60.0312C157.844 59.6042 157.953 59.3047 158.172 59.1328C158.396 58.9557 158.667 58.8672 158.984 58.8672C159.302 58.8672 159.573 58.9557 159.797 59.1328C160.026 59.3047 160.141 59.6042 160.141 60.0312C160.141 60.4479 160.026 60.75 159.797 60.9375C159.573 61.1198 159.302 61.2109 158.984 61.2109C158.667 61.2109 158.396 61.1198 158.172 60.9375C157.953 60.75 157.844 60.4479 157.844 60.0312ZM157.844 53.3438C157.844 52.9115 157.953 52.6068 158.172 52.4297C158.396 52.2526 158.667 52.1641 158.984 52.1641C159.302 52.1641 159.573 52.2526 159.797 52.4297C160.026 52.6068 160.141 52.9115 160.141 53.3438C160.141 53.7552 160.026 54.0547 159.797 54.2422C159.573 54.4245 159.302 54.5156 158.984 54.5156C158.667 54.5156 158.396 54.4245 158.172 54.2422C157.953 54.0547 157.844 53.7552 157.844 53.3438ZM171.461 61H169.617V53.6484C169.617 53.4036 169.62 53.1589 169.625 52.9141C169.63 52.6693 169.635 52.4297 169.641 52.1953C169.651 51.9609 169.664 51.737 169.68 51.5234C169.57 51.6432 169.435 51.7734 169.273 51.9141C169.117 52.0547 168.951 52.2005 168.773 52.3516L167.461 53.3984L166.539 52.2344L169.93 49.5781H171.461V61ZM182.953 61H175.219V59.6172L178.18 56.6172C178.753 56.0339 179.224 55.5312 179.594 55.1094C179.964 54.6823 180.237 54.2786 180.414 53.8984C180.596 53.5182 180.688 53.1042 180.688 52.6562C180.688 52.1042 180.529 51.6875 180.211 51.4062C179.893 51.1198 179.474 50.9766 178.953 50.9766C178.458 50.9766 178 51.0755 177.578 51.2734C177.161 51.4661 176.729 51.7422 176.281 52.1016L175.273 50.8906C175.591 50.6198 175.93 50.3724 176.289 50.1484C176.654 49.9245 177.06 49.7474 177.508 49.6172C177.956 49.4818 178.466 49.4141 179.039 49.4141C179.763 49.4141 180.388 49.5443 180.914 49.8047C181.44 50.0599 181.844 50.4167 182.125 50.875C182.411 51.3333 182.555 51.8672 182.555 52.4766C182.555 53.0911 182.432 53.6589 182.188 54.1797C181.943 54.7005 181.594 55.2161 181.141 55.7266C180.688 56.2318 180.148 56.7812 179.523 57.375L177.547 59.3047V59.3906H182.953V61ZM191.672 52.1875C191.672 52.7031 191.568 53.151 191.359 53.5312C191.151 53.9115 190.865 54.224 190.5 54.4688C190.141 54.7083 189.724 54.8802 189.25 54.9844V55.0391C190.161 55.1536 190.849 55.4401 191.312 55.8984C191.781 56.3568 192.016 56.9635 192.016 57.7188C192.016 58.3802 191.857 58.9714 191.539 59.4922C191.221 60.0078 190.734 60.4141 190.078 60.7109C189.422 61.0078 188.578 61.1562 187.547 61.1562C186.927 61.1562 186.352 61.1068 185.82 61.0078C185.294 60.9089 184.794 60.75 184.32 60.5312V58.8984C184.805 59.138 185.32 59.3229 185.867 59.4531C186.414 59.5833 186.932 59.6484 187.422 59.6484C188.375 59.6484 189.055 59.4714 189.461 59.1172C189.867 58.7578 190.07 58.263 190.07 57.6328C190.07 57.2266 189.964 56.8932 189.75 56.6328C189.542 56.3724 189.216 56.1771 188.773 56.0469C188.336 55.9167 187.771 55.8516 187.078 55.8516H186.07V54.375H187.086C187.747 54.375 188.279 54.2969 188.68 54.1406C189.081 53.9792 189.37 53.7578 189.547 53.4766C189.729 53.1953 189.82 52.8672 189.82 52.4922C189.82 52.0026 189.661 51.6224 189.344 51.3516C189.026 51.0755 188.555 50.9375 187.93 50.9375C187.544 50.9375 187.193 50.9818 186.875 51.0703C186.562 51.1589 186.273 51.2708 186.008 51.4062C185.742 51.5417 185.49 51.6875 185.25 51.8438L184.367 50.5703C184.799 50.2474 185.315 49.974 185.914 49.75C186.513 49.526 187.211 49.4141 188.008 49.4141C189.18 49.4141 190.083 49.6667 190.719 50.1719C191.354 50.6719 191.672 51.3438 191.672 52.1875ZM195.977 59.1406L196.086 59.3203C195.992 59.6953 195.872 60.099 195.727 60.5312C195.581 60.9635 195.422 61.3958 195.25 61.8281C195.078 62.2656 194.904 62.6771 194.727 63.0625H193.383C193.492 62.6406 193.596 62.1979 193.695 61.7344C193.799 61.276 193.893 60.8229 193.977 60.375C194.065 59.9219 194.135 59.5104 194.188 59.1406H195.977ZM205.625 55.2812C205.625 56.2031 205.552 57.0286 205.406 57.7578C205.266 58.4818 205.042 59.0964 204.734 59.6016C204.427 60.1068 204.026 60.4922 203.531 60.7578C203.036 61.0234 202.438 61.1562 201.734 61.1562C200.854 61.1562 200.128 60.9245 199.555 60.4609C198.982 59.9922 198.557 59.3203 198.281 58.4453C198.005 57.5651 197.867 56.5104 197.867 55.2812C197.867 54.0521 197.992 53 198.242 52.125C198.497 51.2448 198.909 50.5703 199.477 50.1016C200.044 49.6328 200.797 49.3984 201.734 49.3984C202.62 49.3984 203.349 49.6328 203.922 50.1016C204.5 50.5651 204.927 51.237 205.203 52.1172C205.484 52.9922 205.625 54.0469 205.625 55.2812ZM199.719 55.2812C199.719 56.2448 199.781 57.0495 199.906 57.6953C200.036 58.3411 200.25 58.8255 200.547 59.1484C200.844 59.4661 201.24 59.625 201.734 59.625C202.229 59.625 202.625 59.4661 202.922 59.1484C203.219 58.8307 203.432 58.349 203.562 57.7031C203.698 57.0573 203.766 56.25 203.766 55.2812C203.766 54.3229 203.701 53.5208 203.57 52.875C203.44 52.2292 203.227 51.7448 202.93 51.4219C202.633 51.0938 202.234 50.9297 201.734 50.9297C201.234 50.9297 200.836 51.0938 200.539 51.4219C200.247 51.7448 200.036 52.2292 199.906 52.875C199.781 53.5208 199.719 54.3229 199.719 55.2812ZM214.781 55.2812C214.781 56.2031 214.708 57.0286 214.562 57.7578C214.422 58.4818 214.198 59.0964 213.891 59.6016C213.583 60.1068 213.182 60.4922 212.688 60.7578C212.193 61.0234 211.594 61.1562 210.891 61.1562C210.01 61.1562 209.284 60.9245 208.711 60.4609C208.138 59.9922 207.714 59.3203 207.438 58.4453C207.161 57.5651 207.023 56.5104 207.023 55.2812C207.023 54.0521 207.148 53 207.398 52.125C207.654 51.2448 208.065 50.5703 208.633 50.1016C209.201 49.6328 209.953 49.3984 210.891 49.3984C211.776 49.3984 212.505 49.6328 213.078 50.1016C213.656 50.5651 214.083 51.237 214.359 52.1172C214.641 52.9922 214.781 54.0469 214.781 55.2812ZM208.875 55.2812C208.875 56.2448 208.938 57.0495 209.062 57.6953C209.193 58.3411 209.406 58.8255 209.703 59.1484C210 59.4661 210.396 59.625 210.891 59.625C211.385 59.625 211.781 59.4661 212.078 59.1484C212.375 58.8307 212.589 58.349 212.719 57.7031C212.854 57.0573 212.922 56.25 212.922 55.2812C212.922 54.3229 212.857 53.5208 212.727 52.875C212.596 52.2292 212.383 51.7448 212.086 51.4219C211.789 51.0938 211.391 50.9297 210.891 50.9297C210.391 50.9297 209.992 51.0938 209.695 51.4219C209.404 51.7448 209.193 52.2292 209.062 52.875C208.938 53.5208 208.875 54.3229 208.875 55.2812ZM230.109 49.5781V56.9688C230.109 57.7656 229.94 58.4792 229.602 59.1094C229.268 59.7396 228.763 60.2396 228.086 60.6094C227.409 60.974 226.557 61.1562 225.531 61.1562C224.068 61.1562 222.953 60.7734 222.188 60.0078C221.427 59.237 221.047 58.2135 221.047 56.9375V49.5781H222.922V56.7734C222.922 57.7266 223.146 58.4297 223.594 58.8828C224.042 59.3359 224.711 59.5625 225.602 59.5625C226.216 59.5625 226.716 59.4557 227.102 59.2422C227.492 59.0234 227.779 58.7057 227.961 58.2891C228.148 57.8672 228.242 57.3594 228.242 56.7656V49.5781H230.109ZM239.625 57.8906C239.625 58.5677 239.458 59.151 239.125 59.6406C238.797 60.1302 238.323 60.5052 237.703 60.7656C237.089 61.026 236.354 61.1562 235.5 61.1562C235.083 61.1562 234.685 61.1328 234.305 61.0859C233.924 61.0391 233.565 60.9714 233.227 60.8828C232.893 60.7891 232.589 60.6771 232.312 60.5469V58.7812C232.776 58.9844 233.294 59.1693 233.867 59.3359C234.44 59.4974 235.023 59.5781 235.617 59.5781C236.102 59.5781 236.503 59.5156 236.82 59.3906C237.143 59.2604 237.383 59.0781 237.539 58.8438C237.695 58.6042 237.773 58.3255 237.773 58.0078C237.773 57.6693 237.682 57.3828 237.5 57.1484C237.318 56.9141 237.042 56.7005 236.672 56.5078C236.307 56.3099 235.849 56.099 235.297 55.875C234.922 55.724 234.562 55.5521 234.219 55.3594C233.88 55.1667 233.578 54.9401 233.312 54.6797C233.047 54.4193 232.836 54.112 232.68 53.7578C232.529 53.3984 232.453 52.9766 232.453 52.4922C232.453 51.8464 232.607 51.2943 232.914 50.8359C233.227 50.3776 233.664 50.026 234.227 49.7812C234.794 49.5365 235.456 49.4141 236.211 49.4141C236.81 49.4141 237.372 49.4766 237.898 49.6016C238.43 49.7266 238.951 49.9036 239.461 50.1328L238.867 51.6406C238.398 51.4479 237.943 51.2943 237.5 51.1797C237.062 51.0651 236.615 51.0078 236.156 51.0078C235.76 51.0078 235.424 51.0677 235.148 51.1875C234.872 51.3073 234.661 51.4766 234.516 51.6953C234.375 51.9089 234.305 52.1641 234.305 52.4609C234.305 52.7943 234.385 53.0755 234.547 53.3047C234.714 53.5286 234.969 53.7344 235.312 53.9219C235.661 54.1094 236.109 54.3177 236.656 54.5469C237.286 54.8073 237.82 55.0807 238.258 55.3672C238.701 55.6536 239.039 55.9974 239.273 56.3984C239.508 56.7943 239.625 57.2917 239.625 57.8906ZM251.102 55.1797C251.102 56.4661 250.862 57.5417 250.383 58.4062C249.904 59.2656 249.208 59.9141 248.297 60.3516C247.385 60.7839 246.286 61 245 61H241.828V49.5781H245.344C246.526 49.5781 247.547 49.7917 248.406 50.2188C249.266 50.6406 249.93 51.2682 250.398 52.1016C250.867 52.9297 251.102 53.9557 251.102 55.1797ZM249.148 55.2344C249.148 54.2969 249 53.526 248.703 52.9219C248.411 52.3177 247.979 51.8698 247.406 51.5781C246.839 51.2812 246.138 51.1328 245.305 51.1328H243.703V59.4297H245.031C246.411 59.4297 247.443 59.0781 248.125 58.375C248.807 57.6719 249.148 56.625 249.148 55.2344Z" fill="#353C41"/>
</g>
<defs>
<filter id="filter0_dd_5399_64943" x="0" y="0" width="489.131" height="108" filterUnits="userSpaceOnUse" color-interpolation-filters="sRGB">
<feFlood flood-opacity="0" result="BackgroundImageFix"/>
<feColorMatrix in="SourceAlpha" type="matrix" values="0 0 0 0 0 0 0 0 0 0 0 0 0 0 0 0 0 0 127 0" result="hardAlpha"/>
<feOffset dy="12"/>
<feGaussianBlur stdDeviation="12"/>
<feComposite in2="hardAlpha" operator="out"/>
<feColorMatrix type="matrix" values="0 0 0 0 0.170667 0 0 0 0 0.438857 0 0 0 0 0.64 0 0 0 0.12 0"/>
<feBlend mode="normal" in2="BackgroundImageFix" result="effect1_dropShadow_5399_64943"/>
<feColorMatrix in="SourceAlpha" type="matrix" values="0 0 0 0 0 0 0 0 0 0 0 0 0 0 0 0 0 0 127 0" result="hardAlpha"/>
<feOffset dx="12" dy="12"/>
<feGaussianBlur stdDeviation="11"/>
<feComposite in2="hardAlpha" operator="out"/>
<feColorMatrix type="matrix" values="0 0 0 0 0.0363111 0 0 0 0 0.343181 0 0 0 0 0.573333 0 0 0 0.05 0"/>
<feBlend mode="normal" in2="effect1_dropShadow_5399_64943" result="effect2_dropShadow_5399_64943"/>
<feBlend mode="normal" in="SourceGraphic" in2="effect2_dropShadow_5399_64943" result="shape"/>
</filter>
</defs>
</svg>
